<?xml version="1.0" encoding="UTF-8"?>
<svg id="Capa_1" data-name="Capa 1" xmlns="http://www.w3.org/2000/svg" viewBox="0 0 211.75 153.31">
  <defs>
    <style>
      .cls-1 {
        fill: #f6f0b3;
        stroke-width: 0px;
      }
    </style>
  </defs>
  <g>
    <path class="cls-1" d="m3.14,109.83c0-1.87-.38-3.11-2.27-3.43-.25-.07-.44-.21-.44-.5s.22-.46.49-.46h7.08c.22,0,.44.15.44.46,0,.28-.13.43-.41.5-1.5.28-2.21,1.09-2.27,3.5l-.19,5.86c0,.1.03.18.16.18h9.54c.9,0,1.44-.32,1.47-1.09l.16-4.74c0-1.94-.25-3.36-2.3-3.71-.25-.07-.41-.21-.41-.5s.16-.46.44-.46h7.13c.19,0,.41.15.41.46,0,.28-.13.43-.38.5-1.78.32-2.24,1.24-2.3,3.68l-.41,14.03c0,2.09.19,3.36,2.27,3.71.25.03.44.21.44.5s-.22.46-.49.46h-7.08c-.22,0-.44-.15-.44-.46,0-.28.13-.46.41-.5,1.75-.32,2.21-1.27,2.27-3.71l.19-6.39c0-.21-.13-.28-.35-.28H7.17c-1.15,0-1.63.32-1.66,1.13l-.19,5.55c0,1.94.22,3.36,2.3,3.71.25.03.41.21.41.5s-.19.46-.44.46H.44c-.22,0-.44-.15-.44-.46,0-.28.13-.46.41-.5,1.75-.32,2.27-1.44,2.33-3.71l.38-14.27v-.03Z"/>
    <path class="cls-1" d="m26.94,108.8c0-1.59-.9-2.19-2.27-2.4-.25-.07-.44-.21-.44-.5s.19-.5.49-.5h7.13c.19,0,.41.18.41.5,0,.28-.13.43-.38.5-1.63.21-2.24.81-2.27,2.4-.03,2.22-.16,4.27-.16,6.51,0,.85,0,1.69.03,2.44.06,2.33.25,4.39,1.28,6.11,1.12,1.8,2.9,2.68,4.76,2.68,2.13,0,3.99-1.13,4.95-3.28.49-1.03.68-2.27.8-3.39.19-2.12.16-5.33.22-7.49l.13-3.56c0-1.56-.93-2.15-2.27-2.4-.29-.03-.44-.21-.44-.5s.19-.5.49-.5h6.07c.19,0,.44.18.44.5,0,.28-.13.46-.41.5-1.59.25-2.21.81-2.27,2.4l-.19,3.68c-.1,2.22-.03,5.05-.22,7.27-.13,1.49-.38,2.93-.96,4.27-1.47,3.39-4.15,5.12-7.63,5.12-2.81,0-5.14-1.44-6.36-4.06-.99-2.15-1.12-4.49-1.12-7.1l.16-5.05.06-4.14h-.01Z"/>
    <path class="cls-1" d="m57.57,106.02l6.67,19.39c.57,1.66,1.47,2.27,2.97,2.4.25.03.38.21.38.5,0,.32-.22.5-.41.5h-7.32c-.25,0-.44-.21-.44-.5s.16-.5.41-.5c.74,0,1.56-.21,1.56-1.21,0-.35-.06-.74-.22-1.21l-1.59-4.7c-.06-.21-.1-.28-.29-.28h-6.1c-.96,0-2.13,0-2.68,1.34l-1.47,3.64c-.16.38-.25.78-.25,1.06,0,1.27,1.5,1.34,2.3,1.34.25,0,.41.21.41.5s-.19.5-.44.5h-6.48c-.22,0-.44-.18-.44-.5,0-.28.13-.46.41-.5,1.56-.1,2.08-.91,2.68-2.4l7.7-18.65c.35-.81,1.12-1.52,1.83-1.52.52,0,.68.32.82.78h-.01Zm-5.84,12.65c-.06.15-.06.18-.06.21,0,.07.06.1.19.1h6.32c.44,0,.63-.1.63-.43,0-.15-.03-.32-.09-.46l-1.75-5.23c-.41-1.21-1.02-2.8-1.21-4.09,0-.07-.03-.1-.06-.1s-.06.03-.06.1c-.22.88-.54,1.74-.93,2.62l-2.97,7.27h-.01Z"/>
    <path class="cls-1" d="m80.25,105.06c4.09,0,5.08,1.09,5.08,4.39,0,.56-.1,1.74-.1,2.02,0,.43-.25.6-.49.6-.19-.03-.41-.21-.54-.53-.96-2.68-3-4.17-5.58-4.17-4.34,0-7.66,3.81-7.66,9.54,0,5.27,2.65,9.36,7.6,9.36,2.46,0,4.89-1.27,5.74-4.14.09-.25.29-.53.57-.53.32,0,.44.38.44.71,0,.35-.13.81-.13,1.56,0,1.34-.52,2.5-1.34,3.28-1.53,1.52-3.42,2.05-5.65,2.05-5.55,0-9.2-4.45-9.2-10.63,0-7.24,4.37-13.5,11.23-13.5h.03Z"/>
    <path class="cls-1" d="m99.89,106.02l6.67,19.39c.57,1.66,1.47,2.27,2.97,2.4.25.03.38.21.38.5,0,.32-.22.5-.41.5h-7.32c-.25,0-.44-.21-.44-.5s.16-.5.41-.5c.74,0,1.56-.21,1.56-1.21,0-.35-.06-.74-.22-1.21l-1.59-4.7c-.06-.21-.1-.28-.29-.28h-6.1c-.96,0-2.13,0-2.68,1.34l-1.47,3.64c-.16.38-.25.78-.25,1.06,0,1.27,1.5,1.34,2.3,1.34.25,0,.41.21.41.5s-.19.5-.44.5h-6.48c-.22,0-.44-.18-.44-.5,0-.28.13-.46.41-.5,1.56-.1,2.08-.91,2.68-2.4l7.7-18.65c.35-.81,1.12-1.52,1.83-1.52.52,0,.68.32.82.78h-.01Zm-5.84,12.65c-.06.15-.06.18-.06.21,0,.07.06.1.19.1h6.32c.44,0,.63-.1.63-.43,0-.15-.03-.32-.09-.46l-1.75-5.23c-.41-1.21-1.02-2.8-1.21-4.09,0-.07-.03-.1-.06-.1s-.06.03-.06.1c-.22.88-.54,1.74-.93,2.62l-2.97,7.27h-.01Z"/>
    <path class="cls-1" d="m122.58,105.06c4.09,0,5.08,1.09,5.08,4.39,0,.56-.1,1.74-.1,2.02,0,.43-.25.6-.49.6-.19-.03-.41-.21-.54-.53-.96-2.68-3-4.17-5.58-4.17-4.34,0-7.66,3.81-7.66,9.54,0,5.27,2.65,9.36,7.6,9.36,2.46,0,4.89-1.27,5.74-4.14.09-.25.29-.53.57-.53.32,0,.44.38.44.71,0,.35-.13.81-.13,1.56,0,1.34-.52,2.5-1.34,3.28-1.53,1.52-3.42,2.05-5.65,2.05-5.55,0-9.2-4.45-9.2-10.63,0-7.24,4.37-13.5,11.23-13.5h.03Z"/>
    <path class="cls-1" d="m134.14,109.83c0-1.87-.38-3.11-2.27-3.43-.25-.07-.44-.21-.44-.5s.22-.46.49-.46h7.08c.22,0,.44.15.44.46,0,.28-.13.43-.41.5-1.5.28-2.21,1.09-2.27,3.5l-.19,5.86c0,.1.03.18.16.18h9.54c.9,0,1.44-.32,1.47-1.09l.16-4.74c0-1.94-.25-3.36-2.3-3.71-.25-.07-.41-.21-.41-.5s.16-.46.44-.46h7.13c.19,0,.41.15.41.46,0,.28-.13.43-.38.5-1.78.32-2.24,1.24-2.3,3.68l-.41,14.03c0,2.09.19,3.36,2.27,3.71.25.03.44.21.44.5s-.22.46-.49.46h-7.08c-.22,0-.44-.15-.44-.46,0-.28.13-.46.41-.5,1.75-.32,2.21-1.27,2.27-3.71l.19-6.39c0-.21-.13-.28-.35-.28h-9.13c-1.15,0-1.63.32-1.66,1.13l-.19,5.55c0,1.94.22,3.36,2.3,3.71.25.03.41.21.41.5s-.19.46-.44.46h-7.13c-.22,0-.44-.15-.44-.46,0-.28.13-.46.41-.5,1.75-.32,2.27-1.44,2.33-3.71l.38-14.27v-.03Z"/>
    <path class="cls-1" d="m161.37,124.11c0,1.94.16,3.36,2.24,3.71.25.03.41.21.41.5s-.19.46-.44.46h-7.05c-.22,0-.49-.15-.49-.46,0-.28.13-.46.41-.5,2.16-.32,2.24-1.74,2.3-3.71l.41-13.99c0-1.94-.22-3.36-2.3-3.71-.22-.07-.38-.21-.38-.5s.16-.46.41-.46h7.13c.19,0,.44.15.44.46,0,.28-.16.46-.41.5-2.13.32-2.3,1.69-2.33,3.71l-.35,13.99"/>
    <path class="cls-1" d="m182.28,121.57c1.18,1.97,1.4,2.93,1.47,2.93s.03-.63.1-3.21l.35-11.69c0-1.74-.54-2.9-2.3-3.18-.29-.07-.44-.21-.44-.5s.16-.5.44-.5h6.07c.22,0,.49.18.49.5,0,.28-.16.43-.44.5-1.91.28-2.16,1.44-2.24,3.36l-.57,18.68c0,.35,0,.71-.44.71-.22,0-.74-.07-1.53-.96-.8-.88-1.53-2.05-2.46-3.61l-7.66-12.9c-.74-1.27-1.28-2.47-1.34-2.47s-.03.5-.1,2.55l-.38,12.69c0,1.77.35,3,2.3,3.36.29.03.44.21.44.5s-.19.46-.49.46h-6.07c-.19,0-.44-.15-.44-.46,0-.28.16-.46.41-.5,2.16-.32,2.21-1.8,2.27-3.68l.44-14.34c0-1.87-.41-3.08-2.3-3.39-.22-.07-.38-.21-.38-.5s.16-.5.41-.5h4.28c.38,0,.54.03.74.38l9.39,15.75h-.03Z"/>
    <path class="cls-1" d="m201.73,106.02l6.67,19.39c.57,1.66,1.47,2.27,2.97,2.4.25.03.38.21.38.5,0,.32-.22.5-.41.5h-7.32c-.25,0-.44-.21-.44-.5s.16-.5.41-.5c.74,0,1.56-.21,1.56-1.21,0-.35-.06-.74-.22-1.21l-1.59-4.7c-.06-.21-.1-.28-.29-.28h-6.1c-.96,0-2.13,0-2.68,1.34l-1.47,3.64c-.16.38-.25.78-.25,1.06,0,1.27,1.5,1.34,2.3,1.34.25,0,.41.21.41.5s-.19.5-.44.5h-6.48c-.22,0-.44-.18-.44-.5,0-.28.13-.46.41-.5,1.56-.1,2.08-.91,2.68-2.4l7.7-18.65c.35-.81,1.12-1.52,1.83-1.52.52,0,.68.32.82.78h-.01Zm-5.84,12.65c-.06.15-.06.18-.06.21,0,.07.06.1.19.1h6.32c.44,0,.63-.1.63-.43,0-.15-.03-.32-.09-.46l-1.75-5.23c-.41-1.21-1.02-2.8-1.21-4.09,0-.07-.03-.1-.06-.1s-.06.03-.06.1c-.22.88-.54,1.74-.93,2.62l-2.97,7.27h-.01Z"/>
    <path class="cls-1" d="m14.21,144.81c0,4.71-3.15,8.36-8.6,8.36-.99,0-1.88-.15-2.94-.15H.31c-.16,0-.31-.09-.31-.31,0-.19.09-.28.29-.32.94-.19,1.58-.59,1.6-1.6l.35-11.07c0-1.03-.65-1.46-1.62-1.6-.18-.04-.29-.15-.29-.32s.13-.31.31-.31h1.99c1.37,0,2.5-.15,3.75-.15,4.46,0,7.82,2.75,7.82,7.46h0Zm-10.04,6.86c.74.28,1.56.43,2.34.43,1.53,0,3.06-.52,4.14-1.69,1.07-1.21,1.65-2.9,1.65-4.62,0-2.19-.84-4.46-2.52-5.82-1.49-1.21-3.37-1.72-5.2-1.72-.38,0-.47.07-.47.32l-.41,12.63c0,.27.18.38.47.47"/>
    <path class="cls-1" d="m26.91,137.47c1.02,0,2.34-.12,3.05-.12.5,0,.59.27.59.66l-.27,2.97c-.03.31-.13.38-.34.38s-.29-.12-.31-.38c-.29-1.88-1.18-2.59-2.71-2.59h-3.78c-.16,0-.22.07-.22.21l-.18,5.42c0,.24.16.38.47.38h1.96c1.19,0,2.39-.16,3.53-.54.12-.04.22-.09.31-.09.12,0,.13.04.13.24l-.12,1.25c-.03.24-.21.32-.46.32-.85,0-1.99-.21-3.49-.21h-1.74c-.41,0-.63.28-.65.68l-.16,4.95c0,.78.68,1.15,2.27,1.15h1.8c1.44,0,2.71-.4,3.37-2.59.04-.19.12-.38.34-.38.25,0,.27.24.27.47l-.21,2.99c-.03.35-.27.54-.68.54-.35,0-1.6-.15-2.99-.15h-7.58c-.16,0-.31-.09-.31-.31,0-.19.09-.28.29-.32,1.41-.28,1.58-1.15,1.62-2.44l.31-9.57c0-1.25-.29-2.05-1.65-2.27-.18-.04-.29-.15-.29-.32s.13-.31.31-.31l7.48-.03h.03Z"/>
    <path class="cls-1" d="m39.06,151.13c0,.75.81,1.02,2.25,1.02,1.58,0,2.84-.16,3.7-1.06.38-.4.68-.9.9-1.58.04-.16.12-.35.35-.35.22,0,.25.24.25.47l-.27,2.87c-.04.44-.34.68-.9.68s-1.44-.15-3.92-.15h-5.74c-.16,0-.31-.09-.31-.31,0-.19.09-.28.29-.32,1.06-.21,1.56-.74,1.6-1.86l.31-9.95c0-1.3-.16-2.24-1.6-2.47-.21-.04-.31-.15-.31-.32s.12-.32.34-.32h5.18c.16,0,.31.12.31.32,0,.19-.09.31-.29.32-1.52.21-1.75,1.13-1.8,2.44l-.34,10.56h-.01Z"/>
    <path class="cls-1" d="m69.56,148.24c.84,1.33.99,1.96,1.03,1.96s.03-.43.07-2.15l.25-7.8c0-1.15-.38-1.93-1.62-2.12-.21-.04-.31-.15-.31-.32s.12-.32.31-.32h4.28c.16,0,.34.12.34.32,0,.19-.12.28-.31.32-1.35.19-1.53.97-1.58,2.24l-.41,12.47c0,.24,0,.47-.31.47-.16,0-.52-.04-1.07-.63-.56-.59-1.07-1.37-1.74-2.4l-5.4-8.6c-.52-.85-.9-1.65-.94-1.65s-.03.32-.07,1.69l-.27,8.47c0,1.18.25,2,1.62,2.24.21.03.31.15.31.32s-.13.31-.34.31h-4.28c-.13,0-.31-.09-.31-.31,0-.19.12-.31.29-.32,1.53-.21,1.56-1.21,1.6-2.44l.31-9.57c0-1.25-.29-2.05-1.62-2.27-.16-.04-.27-.15-.27-.32s.12-.32.29-.32h3.02c.27,0,.38.03.52.27l6.63,10.51-.03-.03Z"/>
    <path class="cls-1" d="m92.47,144.46c0,4.27-2.61,8.83-7.6,8.83-4.28,0-6.24-3.42-6.24-7.1,0-4.31,2.72-8.98,7.61-8.98,4.2,0,6.21,3.52,6.21,7.23h.01Zm-12.28.47c0,3.37,1.87,6.79,5.65,6.79,3.45,0,5.06-2.94,5.06-6.04,0-3.37-1.96-6.9-5.65-6.9-3.4,0-5.06,3.02-5.06,6.15"/>
    <path class="cls-1" d="m108.58,141.62c0,2.62-2.33,4.28-4.68,4.28-.09,0-.09.04-.09.07s0,.04.07.12c1.22,1.34,2.43,2.78,3.74,4.03,1.03.97,2.25,1.97,3.37,2.44.13.07.21.15.21.24s-.09.19-.29.24c-.35.09-.77.15-1.12.15-1.28,0-2.52-.47-3.49-1.41-1.37-1.33-2.55-3.4-3.7-5.09-.38-.56-.77-.85-1.65-.85l-.13,4.12c0,1.8.8,2.24,2.5,2.44.18.03.31.15.31.32,0,.21-.16.31-.34.31h-5.87c-.13,0-.31-.09-.31-.31,0-.19.12-.28.29-.32,1.44-.28,1.58-1.13,1.62-2.44l.29-9.38c0-1.3-.16-2.21-1.62-2.44-.18-.04-.29-.15-.29-.32s.13-.31.31-.31h1.69c1.07,0,2.37-.15,3.67-.15,2.77,0,5.52.87,5.52,4.27h-.01Zm-1.88.47c0-3.02-2.8-3.84-5.11-3.84-.25,0-.38.09-.38.31l-.21,6.08c.03.4.16.52,1.78.52,2.16,0,3.92-.66,3.92-3.06"/>
    <path class="cls-1" d="m121.71,137.5c2.18,0,3.22-.15,3.92-.15.5,0,.56.27.56.66l-.18,2.97c0,.31-.12.38-.31.38s-.27-.12-.31-.38c-.31-1.88-1.28-2.66-2.81-2.66h-1.22c-.16,0-.25.09-.25.27l-.38,12.23c0,1.21,1.02,1.46,2.21,1.6.18.03.31.15.31.32s-.13.32-.34.32h-5.79c-.16,0-.31-.12-.31-.32,0-.19.09-.28.29-.32.93-.19,1.78-.56,1.8-1.6l.38-12.25c0-.15-.09-.27-.27-.27h-1.19c-1.5.03-2.52.9-3.15,2.64-.09.31-.18.43-.43.43-.12,0-.22-.09-.22-.27l.54-3.14c.07-.44.29-.62.68-.62,1.37,0,2.34.15,3.52.15h2.97-.03Z"/>
    <path class="cls-1" d="m137.79,137.47c1.02,0,2.34-.12,3.05-.12.5,0,.59.27.59.66l-.27,2.97c-.03.31-.13.38-.34.38s-.29-.12-.31-.38c-.29-1.88-1.18-2.59-2.71-2.59h-3.78c-.16,0-.22.07-.22.21l-.18,5.42c0,.24.16.38.47.38h1.96c1.19,0,2.39-.16,3.53-.54.12-.04.22-.09.31-.09.12,0,.13.04.13.24l-.12,1.25c-.03.24-.21.32-.46.32-.85,0-1.99-.21-3.49-.21h-1.74c-.41,0-.63.28-.65.68l-.16,4.95c0,.78.68,1.15,2.27,1.15h1.8c1.44,0,2.71-.4,3.37-2.59.04-.19.12-.38.34-.38.25,0,.27.24.27.47l-.21,2.99c-.03.35-.27.54-.68.54-.35,0-1.6-.15-2.99-.15h-7.58c-.16,0-.31-.09-.31-.31,0-.19.09-.28.29-.32,1.41-.28,1.58-1.15,1.62-2.44l.31-9.57c0-1.25-.29-2.05-1.65-2.27-.18-.04-.29-.15-.29-.32s.13-.31.31-.31l7.48-.03h.03Z"/>
    <path class="cls-1" d="m211.74,145.96c-3.65,0-5.49-1.38-7.26-2.74-1.63-1.24-3.17-2.41-6.29-2.41s-4.65,1.16-6.29,2.41c-1.77,1.34-3.61,2.74-7.26,2.74s-5.49-1.38-7.26-2.74c-1.63-1.24-3.17-2.41-6.29-2.41s-4.65,1.16-6.29,2.41c-1.77,1.34-3.61,2.74-7.26,2.74v-1.6c3.12,0,4.65-1.16,6.29-2.41,1.77-1.34,3.61-2.74,7.26-2.74s5.49,1.38,7.26,2.74c1.63,1.24,3.17,2.41,6.29,2.41s4.65-1.16,6.29-2.41c1.77-1.34,3.61-2.74,7.26-2.74s5.49,1.38,7.26,2.74c1.63,1.24,3.17,2.41,6.29,2.41v1.6Z"/>
  </g>
  <path class="cls-1" d="m123.23,7.17c-1.58-1.61-3.37-2.99-5.3-4.09-.09-.04-.18-.1-.26-.15l-.26-.15c-3.41-1.83-7.27-2.78-11.14-2.78s-7.74.97-11.14,2.78l-.53.28c-7.62,4.34-12.34,12.47-12.34,21.39v40.21c0,1.67.16,3.34.5,4.97.1.51.22.98.34,1.44.64,2.45,1.66,4.76,3.02,6.89.32.53.69,1.04,1.07,1.54,1.64,2.18,3.6,4.06,5.85,5.57.54.37,1.11.72,1.71,1.06,3.5,1.96,7.49,3,11.52,3,4.4,0,8.7-1.23,12.44-3.53.44-.28.88-.57,1.32-.88.01,0,.03-.01.04-.03,1.86-1.33,3.53-2.93,4.94-4.73.31-.4.63-.82.92-1.26.73-1.06,1.36-2.15,1.92-3.31.56-1.16,1.01-2.34,1.38-3.58v-.04c.06-.19.12-.38.16-.57.01-.04.03-.09.03-.13.06-.22.12-.44.16-.66.44-1.86.67-3.8.67-5.74V24.44c0-6.54-2.49-12.68-7.03-17.29h.01Zm-26.79-3.15c3.06-1.54,6.36-2.32,9.82-2.32s6.76.78,9.82,2.32c-.01.07-.03.15-.04.22-.01.07-.03.15-.06.22-.04.19-.1.38-.16.56-.06.19-.12.37-.19.54-.04.12-.09.23-.15.35-.09.21-.18.41-.28.62-.13.25-.26.5-.41.75-.04.07-.09.13-.13.21-.07.12-.15.22-.22.34,0,0-.01.03-.03.04-.07.1-.15.21-.23.31l-.13.18c-.04.06-.09.12-.13.16-.04.06-.09.12-.13.16s-.07.09-.12.13l-.03.03c-.07.07-.15.15-.21.23l-.22.22c-.15.15-.31.29-.47.44-.06.04-.1.09-.16.13-.1.09-.22.18-.34.26-.16.13-.34.25-.5.37-.12.09-.25.16-.38.23-.12.07-.25.15-.37.22-.13.07-.25.13-.38.21-.06.03-.13.06-.19.09-.07.03-.16.07-.23.12-.12.04-.22.09-.34.13-.21.09-.41.16-.62.22-.06.01-.12.03-.18.06-.09.03-.18.06-.26.07-.04,0-.1.03-.15.04-.15.04-.31.07-.45.1-.07.01-.13.03-.21.04-.07,0-.15.03-.22.03-.35.06-.7.09-1.07.12h-.92c-.54-.03-1.07-.09-1.58-.21-.07,0-.15-.03-.21-.04-.07-.01-.13-.03-.21-.04h-.04c-.06-.01-.13-.03-.19-.06-.06-.01-.12-.03-.16-.04-.16-.04-.32-.1-.47-.16-.07-.03-.13-.04-.21-.07-.06-.01-.12-.04-.16-.06-.09-.03-.18-.07-.25-.1-.06-.03-.13-.06-.19-.09-.07-.03-.13-.06-.21-.09-.06-.03-.13-.07-.19-.1-.06-.03-.13-.07-.19-.1-.07-.03-.13-.07-.21-.12-.12-.07-.23-.15-.35-.22-.01,0-.03-.01-.04-.03-.06-.03-.1-.07-.16-.1-.06-.03-.1-.07-.16-.12s-.12-.09-.18-.12c-.07-.06-.13-.1-.21-.16l-.18-.13c-.06-.04-.12-.09-.18-.15-.06-.04-.12-.09-.16-.15-.12-.1-.22-.19-.32-.31-.06-.06-.1-.1-.16-.16-.03-.03-.06-.06-.07-.07-.04-.04-.09-.09-.13-.13-.03-.03-.06-.07-.1-.1-.06-.06-.1-.12-.15-.16-.1-.12-.19-.23-.29-.35-.09-.12-.18-.23-.26-.35l-.13-.18c-.04-.06-.09-.12-.13-.19-.04-.07-.09-.13-.13-.21-.07-.12-.15-.23-.21-.34-.07-.13-.16-.28-.23-.41-.07-.13-.13-.26-.21-.41-.06-.13-.13-.28-.18-.41-.03-.09-.07-.18-.1-.26-.03-.06-.04-.12-.06-.16-.03-.07-.06-.15-.07-.22-.03-.07-.04-.15-.07-.22-.03-.07-.04-.15-.06-.22-.03-.09-.04-.18-.07-.26-.04-.13-.07-.28-.1-.42,0-.03-.01-.06-.01-.09v-.04Zm-12.05,65.27c-.25-1.22-.4-2.45-.44-3.69,7.58-3.8,15.99-7.75,17.14-7.82.44.07,2.08.84,4.67,2.17.12.06.25.13.37.19,4.44,2.3,11.47,6.14,19.94,10.92-1,.21-2.15.34-3.62.34-3.69,0-5.51-.81-7.43-1.66-1.95-.86-3.97-1.76-7.94-1.76h-.18c-3.85.03-5.85.91-7.77,1.76-1.93.85-3.75,1.66-7.5,1.66-3.52,0-5.33-.72-7.15-1.51-.04-.19-.09-.38-.13-.59h.03Zm21.86,18.13c-3.37,0-6.7-.78-9.72-2.27,1.64-.34,2.84-.86,4.02-1.39,1.92-.85,3.74-1.64,7.43-1.66,3.69,0,5.51.81,7.43,1.66.57.25,1.14.51,1.77.73-3.33,1.9-7.09,2.92-10.93,2.92h0Zm12.87-4.16s-.03.01-.04.03c-.19.15-.38.28-.59.41-.91-.28-1.69-.63-2.49-.98-1.95-.86-3.97-1.74-7.94-1.74h-.18c-3.85.03-5.85.89-7.77,1.74-1.49.66-2.92,1.29-5.22,1.54-.34-.19-.64-.4-.95-.62-1.82-1.23-3.44-2.71-4.84-4.41.91.15,1.95.22,3.17.22,3.97,0,5.99-.89,7.94-1.76,1.92-.85,3.74-1.64,7.43-1.66,3.69,0,5.51.81,7.43,1.66,1.95.86,3.97,1.76,7.94,1.76h.22c-1.2,1.44-2.58,2.71-4.09,3.8h-.03Zm8.31-11.39c-.67,2.08-1.66,4.04-2.89,5.85-.13.19-.26.38-.41.57-.34.01-.69.03-1.06.03-3.69,0-5.51-.81-7.43-1.66-1.95-.86-3.97-1.74-7.94-1.74h-.18c-3.85.03-5.85.89-7.77,1.74-1.93.85-3.75,1.66-7.5,1.66-1.76,0-3.08-.18-4.21-.45-.19-.28-.38-.56-.56-.84-1.14-1.79-2.02-3.72-2.62-5.76,1.64.67,3.58,1.25,6.77,1.25,3.97,0,5.99-.89,7.94-1.74,1.92-.85,3.72-1.64,7.43-1.66,3.69,0,5.51.81,7.43,1.66,1.95.86,3.97,1.74,7.94,1.74h.18c2.07,0,3.59-.26,4.86-.63,0-.03.01-.04.03-.07l.07.04s-.06.01-.09.03h-.01Zm1.14-7.21c0,1.82-.21,3.6-.62,5.33-.03.13-.06.28-.1.41l.16.09s-.13.04-.19.07c.01-.06.03-.1.04-.16l-.42-.23c-7.08-3.99-15.14-8.47-20.47-11.21v-21.85c1.3.97,3.25,3,1.86,6.01-.16.35-.01.78.34.95.1.04.19.07.29.07.26,0,.51-.15.63-.41.89-1.92.73-3.58.1-4.94,1.17,1.27,2.45,3.62.95,7.15-.15.37,0,.78.37.94.09.04.19.06.28.06.26,0,.53-.16.64-.42.88-2.08.94-3.82.6-5.28.78,1.38,1.49,3.78-.03,7.06-.16.35-.01.78.34.95.1.04.19.07.29.07.26,0,.51-.15.63-.41.79-1.69,1.04-3.19,1.01-4.5.69,2.21.45,4.72-.69,7.44-.15.37,0,.78.37.94.09.04.18.06.28.06.26,0,.53-.16.64-.44,1.51-3.59,1.58-6.87.22-9.74-1.82-3.85-5.74-5.96-7.99-6.9,1.55-.53,3.96-.76,5.54,1.8.13.22.37.34.59.34.13,0,.25-.03.37-.1.32-.21.42-.64.22-.98-1.1-1.8-2.56-2.56-4.03-2.75,1.69-.32,4.32-.16,6.43,3.03.13.21.35.32.59.32.13,0,.26-.04.4-.12.32-.22.41-.66.19-1-1.25-1.88-2.67-2.87-4.03-3.36,1.55.07,3.94.75,5.82,3.81.13.22.37.34.59.34.13,0,.25-.03.37-.1.32-.21.42-.64.22-.98-.97-1.58-2.08-2.62-3.18-3.3,2.2.6,4.15,2.14,5.79,4.59.13.21.35.31.57.31.13,0,.28-.04.4-.12.32-.22.4-.66.18-1-2.15-3.22-4.84-5.06-7.93-5.44-4.07-.5-7.87,1.63-9.89,3.06.5-1.57,1.71-3.59,4.62-3.41.38.03.72-.28.73-.67.03-.4-.26-.73-.66-.75-2.05-.12-3.52.63-4.51,1.73.73-1.58,2.4-3.63,6.13-3.55.38,0,.7-.31.72-.69,0-.4-.29-.72-.67-.73-2.21-.06-3.82.53-5.01,1.38.97-1.25,2.89-2.83,6.42-2.61.38.01.72-.28.75-.67.03-.4-.28-.73-.66-.75-1.83-.12-3.3.21-4.48.73,1.76-1.48,4.12-2.2,7.02-2.14.4.01.7-.31.72-.7,0-.4-.29-.72-.69-.73-3.84-.07-6.84,1.08-8.94,3.43-1.25,1.39-2.02,3.05-2.52,4.67-.48-1.63-1.27-3.28-2.52-4.67-2.11-2.36-5.11-3.52-8.94-3.43-.38,0-.69.34-.69.73s.34.7.72.7c2.9-.06,5.26.66,7.03,2.14-1.17-.53-2.65-.84-4.48-.73-.38.03-.67.37-.66.75.03.4.35.69.75.67,3.55-.22,5.47,1.38,6.43,2.62-1.13-.82-2.65-1.41-4.73-1.41h-.29c-.38,0-.69.34-.67.73,0,.4.34.7.72.69,3.72-.09,5.39,1.96,6.13,3.55-1-1.08-2.45-1.85-4.51-1.71-.38.03-.67.37-.66.75.03.4.35.69.73.67,2.86-.18,4.09,1.83,4.6,3.41-2.02-1.44-5.8-3.55-9.88-3.05-3.11.38-5.77,2.21-7.93,5.44-.22.32-.13.78.18,1,.12.09.26.12.4.12.22,0,.44-.1.57-.31,1.64-2.45,3.59-3.99,5.79-4.59-1.1.67-2.21,1.71-3.18,3.3-.21.34-.1.78.22.98.12.07.25.1.37.1.23,0,.45-.12.59-.34,1.88-3.06,4.26-3.75,5.82-3.81-1.36.48-2.78,1.48-4.03,3.36-.22.32-.13.78.19,1,.12.09.25.12.4.12.22,0,.44-.12.59-.32,2.1-3.17,4.72-3.34,6.4-3.03-1.45.19-2.9.97-4,2.75-.21.34-.1.78.22.98.12.07.25.1.37.1.23,0,.45-.12.59-.34,1.57-2.56,3.99-2.32,5.52-1.8-2.26.94-6.17,3.05-7.99,6.9-1.36,2.87-1.27,6.15.22,9.74.12.28.37.44.64.44.09,0,.19-.01.28-.06.35-.16.51-.57.37-.94-1.14-2.73-1.36-5.22-.69-7.44-.03,1.3.22,2.81,1.01,4.5.12.26.37.41.63.41.1,0,.21-.01.29-.07.35-.18.5-.59.34-.95-1.52-3.27-.79-5.69-.01-7.06-.34,1.44-.28,3.19.6,5.28.12.26.37.42.64.42.09,0,.19-.01.28-.06.35-.16.51-.57.37-.94-1.49-3.5-.23-5.85.94-7.14-.62,1.36-.76,3.02.12,4.92.12.26.37.41.63.41.1,0,.21-.03.29-.07.35-.16.5-.59.34-.95-1.39-3,.56-5.04,1.86-6.01v21.14c-2.36-1.17-3.97-1.89-4.44-1.89-1.67,0-12.98,5.57-17.17,7.66V24.49c0-8.1,4.18-15.5,10.98-19.59.04.16.09.32.13.48s.09.32.15.47c.04.15.1.31.16.45.03.09.06.16.1.25.09.23.19.45.29.67.03.07.07.16.12.23.03.06.06.12.09.16.04.09.09.16.13.25.07.15.16.28.25.42.04.07.09.13.13.21.04.07.09.13.13.21.04.07.09.13.13.21.04.07.09.13.15.19.04.06.09.13.15.19.1.13.21.25.31.38.03.04.07.09.12.13.6.7,1.29,1.35,2.05,1.89.12.07.22.16.34.23.29.19.59.38.89.54.07.04.15.09.23.12.26.15.54.26.82.38.06.03.12.06.19.07.1.04.21.09.31.12.04.01.09.03.13.06.09.03.18.06.26.09.12.04.23.07.35.12.03,0,.04.01.07.01.04,0,.09.03.13.04.12.03.22.06.34.09.04,0,.09.03.13.03l.18.04c.35.07.69.13,1.06.18.09,0,.18.01.26.03.06,0,.13,0,.21.01.12,0,.25.01.37.03h1c.12,0,.22,0,.34-.01.07,0,.15,0,.23-.01.09,0,.18-.01.26-.03.09,0,.18-.01.26-.03.09,0,.18-.03.26-.04.07,0,.15-.03.22-.04h.06c.16-.03.31-.06.47-.1.03,0,.06,0,.09-.01.15-.03.28-.07.42-.12h.04c.16-.04.31-.09.47-.15.09-.03.18-.06.26-.09.15-.06.28-.1.42-.16.03,0,.04-.01.07-.03.07-.03.15-.07.23-.1.16-.07.31-.15.47-.22.16-.07.31-.16.45-.23.45-.25.89-.53,1.3-.84.53-.38,1.01-.81,1.47-1.27.18-.19.35-.38.53-.57.09-.1.16-.21.25-.31.06-.07.1-.13.16-.21.06-.07.1-.13.16-.21.16-.22.31-.42.45-.66.04-.07.09-.13.13-.21l.15-.23c.04-.07.09-.15.13-.23.04-.07.09-.16.13-.23.04-.07.07-.16.12-.23.04-.07.07-.15.1-.23.07-.16.15-.32.22-.5.03-.09.07-.16.1-.25.06-.16.12-.34.18-.5.06-.16.1-.32.15-.47.01-.06.03-.13.06-.19.01-.06.03-.12.04-.16,0-.03.01-.06.01-.07,1.61.97,3.09,2.14,4.44,3.5,4.22,4.29,6.54,10.01,6.54,16.09v40.21l-.04-.07Z"/>
</svg>