<?xml version="1.0" encoding="UTF-8"?>
<svg id="Capa_1" data-name="Capa 1" xmlns="http://www.w3.org/2000/svg" viewBox="0 0 91.79 78.79">
  <defs>
    <style>
      .cls-1 {
        fill: #fff;
        stroke-width: 0px;
      }
    </style>
  </defs>
  <g>
    <path class="cls-1" d="m63.81,70.97h-1.08c-.37,0-.62.06-.76.18-.14.12-.21.27-.21.45,0,.2.08.36.24.48.16.12.37.18.65.18s.5-.06.71-.19c.21-.12.36-.31.45-.55v-.55Z"/>
    <path class="cls-1" d="m46.16,69.21c-.2-.12-.44-.18-.7-.18s-.5.06-.71.18c-.21.12-.37.29-.49.51-.12.22-.18.49-.18.81s.06.58.18.8c.12.23.29.4.49.52.21.12.44.18.71.18s.5-.06.7-.18c.2-.12.37-.29.49-.52.12-.22.19-.49.19-.8s-.06-.58-.19-.81c-.12-.22-.29-.39-.49-.51Z"/>
    <path class="cls-1" d="m78.87,70.97h-1.08c-.37,0-.62.06-.76.18-.14.12-.21.27-.21.45,0,.2.08.36.24.48.16.12.37.18.65.18s.5-.06.71-.19c.21-.12.36-.31.45-.55v-.55Z"/>
    <path class="cls-1" d="m87.94,12.34V0L0,10.67l.67,5.51L82.38,6.27v6.75L.05,23.01v55.78h91.74V11.87l-3.85.47ZM14.89,73.24h-1.57v-5.42h1.57v5.42Zm-.08-6.43c-.18.17-.41.26-.71.26s-.52-.08-.71-.25c-.18-.17-.27-.38-.27-.62s.09-.46.27-.62c.18-.17.42-.25.71-.25s.52.08.71.24c.18.16.27.36.27.61,0,.26-.09.48-.27.65Zm7.58,6.43h-1.57v-2.86c0-.44-.1-.76-.29-.97-.19-.21-.46-.31-.81-.31-.25,0-.47.05-.67.16-.2.1-.35.26-.46.48-.11.21-.17.49-.17.83v2.68h-1.57v-5.42h1.5v.65c.16-.17.34-.32.55-.43.36-.19.78-.29,1.24-.29.43,0,.81.09,1.15.26.34.17.61.43.8.79.19.35.29.8.29,1.35v3.1Zm11.08,0h-1.57v-2.86c0-.44-.09-.76-.27-.97-.18-.21-.44-.31-.77-.31-.23,0-.43.05-.61.16-.18.1-.32.26-.42.47-.1.21-.15.47-.15.8v2.72h-1.57v-2.86c0-.44-.09-.76-.27-.97-.18-.21-.43-.31-.76-.31-.23,0-.43.05-.61.16-.18.1-.32.26-.42.47-.1.21-.15.47-.15.8v2.72h-1.57v-5.42h1.5v.63c.15-.17.32-.31.52-.42.35-.19.74-.29,1.18-.29.5,0,.93.13,1.3.38.2.13.36.3.48.51.16-.2.35-.37.58-.51.4-.25.86-.37,1.37-.37.43,0,.81.09,1.14.26.33.17.59.43.79.79.19.35.29.8.29,1.35v3.1Zm7.12-1.27c-.26.42-.61.75-1.06.99-.45.24-.96.36-1.53.36s-1.09-.12-1.54-.36c-.45-.24-.8-.57-1.06-.99-.26-.42-.39-.9-.39-1.44s.13-1.03.39-1.45c.26-.42.61-.75,1.06-.99.45-.24.96-.36,1.54-.36s1.08.12,1.53.36c.45.24.8.57,1.06.98.26.42.38.9.38,1.45s-.13,1.02-.38,1.44Zm7.48.04c-.24.42-.56.74-.97.97-.41.23-.86.35-1.37.35-.48,0-.89-.1-1.23-.3-.18-.11-.34-.24-.47-.41v.63h-1.5v-7.47h1.57v2.63c.13-.14.27-.26.43-.35.34-.2.74-.3,1.2-.3.51,0,.97.11,1.37.34.41.23.73.55.97.97.24.42.36.91.36,1.48s-.12,1.05-.36,1.47Zm3.48,1.24h-1.57v-5.42h1.57v5.42Zm-.08-6.43c-.18.17-.41.26-.71.26s-.52-.08-.71-.25c-.18-.17-.27-.38-.27-.62s.09-.46.27-.62c.18-.17.42-.25.71-.25s.52.08.71.24c.18.16.27.36.27.61,0,.26-.09.48-.27.65Zm3.61,6.43h-1.57v-7.47h1.57v7.47Zm3.54,0h-1.57v-5.42h1.57v5.42Zm-.08-6.43c-.18.17-.41.26-.71.26s-.52-.08-.71-.25c-.18-.17-.27-.38-.27-.62s.09-.46.27-.62c.18-.17.42-.25.71-.25s.52.08.71.24c.18.16.27.36.27.61,0,.26-.09.48-.27.65Zm6.83,6.43h-1.47v-.68c-.12.2-.28.36-.48.48-.3.18-.69.27-1.17.27-.42,0-.79-.07-1.09-.22-.3-.14-.53-.34-.69-.59-.16-.25-.24-.53-.24-.84s.08-.6.24-.85.41-.43.75-.57c.34-.14.79-.21,1.34-.21h1.25c0-.34-.1-.6-.31-.79-.2-.19-.52-.28-.94-.28-.29,0-.57.05-.85.14-.28.09-.52.21-.71.37l-.56-1.1c.3-.21.65-.37,1.07-.48.42-.11.84-.17,1.27-.17.83,0,1.47.19,1.92.58.46.39.68,1,.68,1.82v3.09Zm5.29-4.05c-.07,0-.13-.01-.18-.02-.05,0-.11,0-.17,0-.43,0-.78.12-1.04.37-.27.25-.4.63-.4,1.14v2.56h-1.57v-5.42h1.5v.71c.15-.2.34-.37.56-.5.36-.2.79-.3,1.3-.3v1.45Zm3.01,4.05h-1.57v-5.42h1.57v5.42Zm-.08-6.43c-.18.17-.41.26-.71.26s-.52-.08-.71-.25c-.18-.17-.27-.38-.27-.62s.09-.46.27-.62c.18-.17.42-.25.71-.25s.52.08.71.24c.18.16.27.36.27.61,0,.26-.09.48-.27.65Zm6.83,6.43h-1.47v-.68c-.12.2-.28.36-.48.48-.3.18-.69.27-1.17.27-.42,0-.79-.07-1.09-.22-.3-.14-.53-.34-.69-.59-.16-.25-.24-.53-.24-.84s.08-.6.24-.85.41-.43.75-.57c.34-.14.79-.21,1.34-.21h1.25c0-.34-.1-.6-.31-.79-.2-.19-.52-.28-.94-.28-.29,0-.57.05-.85.14-.28.09-.52.21-.71.37l-.56-1.1c.3-.21.65-.37,1.07-.48.42-.11.84-.17,1.27-.17.83,0,1.47.19,1.92.58.46.39.68,1,.68,1.82v3.09Zm5.8-18.59l-45.93,7.39H5.61V27.93l80.63-9.79v36.5Z"/>
    <path class="cls-1" d="m38.71,69.21c-.21-.12-.44-.18-.71-.18s-.5.06-.71.18c-.21.12-.37.29-.5.51-.12.22-.19.49-.19.81s.06.58.19.8c.12.23.29.4.5.52.21.12.44.18.71.18s.5-.06.71-.18c.21-.12.37-.29.49-.52.12-.22.18-.49.18-.8s-.06-.58-.18-.81c-.12-.22-.29-.39-.49-.51Z"/>
  </g>
  <g>
    <path class="cls-1" d="m71.03,50.95c-2.43,0-4.59-.5-6.49-1.49-1.9-.99-3.39-2.37-4.46-4.13-1.08-1.76-1.61-3.76-1.61-5.99s.54-4.27,1.61-6.01c1.07-1.75,2.56-3.11,4.46-4.11,1.9-.99,4.06-1.49,6.49-1.49s4.44.5,6.2,1.49c1.76.99,3.06,2.41,3.9,4.25l-5.07,2.72c-.59-1.06-1.32-1.84-2.2-2.35-.88-.5-1.84-.75-2.87-.75-1.12,0-2.12.25-3.02.75-.89.5-1.6,1.21-2.12,2.14-.52.92-.78,2.04-.78,3.35s.26,2.43.78,3.35c.52.92,1.22,1.63,2.12,2.14.89.5,1.9.75,3.02.75,1.03,0,1.99-.24,2.87-.73.88-.49,1.61-1.28,2.2-2.37l5.07,2.77c-.84,1.82-2.14,3.22-3.9,4.21-1.76.99-3.83,1.49-6.2,1.49Z"/>
    <path class="cls-1" d="m20.17,57.93l-11.48-23.79,6.06-.26,10.05,21.08-3.57.15,8.37-21.86,5.57-.24-9.46,24.68-5.54.23Z"/>
    <path class="cls-1" d="m47.14,53.7c-1.25.24-2.42.24-3.49.02-1.07-.22-1.96-.64-2.66-1.26-.7-.61-1.14-1.39-1.32-2.34-.16-.86-.12-1.67.13-2.42.25-.76.73-1.53,1.43-2.31.71-.78,1.64-1.61,2.81-2.49.92-.69,1.63-1.28,2.13-1.76.5-.49.84-.92,1.01-1.31.17-.39.21-.77.14-1.15-.1-.51-.36-.9-.78-1.15-.42-.25-.96-.31-1.63-.19-.72.14-1.25.42-1.59.85-.34.43-.45.92-.35,1.49.05.29.16.56.33.82.16.25.42.52.78.81.36.29.86.65,1.51,1.08l11.24,7.34-1.38,2.42-12.16-7.94c-.69-.46-1.26-.89-1.71-1.3-.45-.41-.8-.83-1.04-1.26-.24-.43-.41-.88-.5-1.36-.16-.84-.08-1.62.22-2.35.31-.72.82-1.34,1.55-1.84.72-.5,1.61-.85,2.65-1.05.98-.18,1.85-.18,2.62,0,.77.18,1.42.53,1.93,1.05.51.52.85,1.19,1,2.01.14.72.08,1.42-.16,2.1-.25.68-.7,1.36-1.36,2.05-.66.69-1.57,1.46-2.73,2.3-.86.64-1.52,1.22-1.99,1.73-.47.52-.79,1-.95,1.46-.16.46-.2.93-.1,1.43.09.5.33.91.7,1.23.37.32.85.54,1.44.65.59.11,1.25.1,1.99-.04,1.1-.21,2.05-.64,2.86-1.3.81-.66,1.43-1.54,1.86-2.63.43-1.09.65-2.39.65-3.88l2.76.36c-.03,1.8-.38,3.41-1.02,4.82-.65,1.41-1.55,2.57-2.72,3.48-1.16.91-2.54,1.52-4.14,1.82Z"/>
  </g>
</svg>