<?xml version="1.0" encoding="UTF-8"?>
<svg id="Capa_1" data-name="Capa 1" xmlns="http://www.w3.org/2000/svg" viewBox="0 0 47.15 47.17">
  <defs>
    <style>
      .cls-1 {
        fill: #00ff67;
        fill-rule: evenodd;
        stroke-width: 0px;
      }
    </style>
  </defs>
  <path class="cls-1" d="m47.14,22.39C46.83,9.97,36.6,0,24.01,0S1.42,9.74.88,21.97c-.01.34-.02.67-.02,1.01,0,4.35,1.21,8.4,3.32,11.87L0,47.17l12.82-4.08c3.32,1.82,7.13,2.86,11.18,2.86,12.79,0,23.15-10.28,23.15-22.98,0-.2,0-.39-.01-.59Zm-23.14,19.9c-3.96,0-7.63-1.17-10.71-3.2l-7.48,2.38,2.43-7.17c-2.33-3.19-3.71-7.1-3.71-11.33,0-.63.03-1.26.1-1.87C5.59,11.33,13.92,3.66,24.01,3.66s18.62,7.86,19.4,17.81c.04.5.07,1,.07,1.51,0,10.65-8.74,19.31-19.46,19.31Z"/>
  <path class="cls-1" d="m34.62,27.61c-.57-.28-3.36-1.65-3.88-1.83-.52-.2-.9-.28-1.28.28-.38.56-1.47,1.83-1.8,2.2-.34.38-.66.42-1.24.14-.56-.28-2.4-.87-4.56-2.8-1.68-1.48-2.83-3.33-3.15-3.89-.33-.56-.03-.87.25-1.15.26-.26.56-.66.86-.99.08-.1.14-.18.21-.27.13-.21.23-.4.36-.67.2-.38.1-.7-.04-.99-.14-.28-1.28-3.06-1.76-4.18-.47-1.13-.94-.93-1.28-.93s-.7-.05-1.08-.05-1,.14-1.52.7c-.52.56-1.98,1.93-1.98,4.7,0,.65.12,1.3.29,1.92.57,1.98,1.81,3.62,2.03,3.9.28.37,3.92,6.24,9.69,8.51,5.78,2.24,5.78,1.5,6.82,1.4,1.04-.09,3.36-1.35,3.83-2.68.48-1.31.48-2.44.34-2.68-.14-.23-.52-.37-1.08-.65Z"/>
</svg>